<svg height="512" viewBox="0 0 512 512" width="512" xmlns="http://www.w3.org/2000/svg"><path d="m64 56v112h16v-8a32 32 0 0 1 32-32h16a32 32 0 0 1 32 32v8h16v-112zm56 64a24 24 0 1 1 24-24 24.006 24.006 0 0 1 -24 24z" fill="#1e1f29e5"/><path d="m224 264h64v112h-64z" fill="#1e1f29e5"/><path d="m64 200h272v32h-272z" fill="#1e1f29e5"/><path d="m352 400h8v16h-50.34a63.743 63.743 0 0 1 42.34-16z" fill="#1e1f29e5"/><path d="m64 56v112h16v-8a32 32 0 0 1 32-32h16a32 32 0 0 1 32 32v8h16v-112zm56 64a24 24 0 1 1 24-24 24.006 24.006 0 0 1 -24 24z" fill="#1e1f29e5"/><path d="m224 264h64v112h-64z" fill="#1e1f29e5"/><path d="m64 200h272v32h-272z" fill="#1e1f29e5"/><path d="m464 464v32h-176v-32a63.987 63.987 0 0 1 64-64h48a64 64 0 0 1 64 64z" fill="#1e1f29e5"/><g fill="#BFD9D6"><path d="m64 176h112a8 8 0 0 0 8-8v-112a8 8 0 0 0 -8-8h-112a8 8 0 0 0 -8 8v112a8 8 0 0 0 8 8zm24-16a24.027 24.027 0 0 1 24-24h16a24.027 24.027 0 0 1 24 24zm32-48a16 16 0 1 1 16-16 16.019 16.019 0 0 1 -16 16zm-48-48h96v96a40.062 40.062 0 0 0 -28.823-38.4 32 32 0 1 0 -38.354 0 40.062 40.062 0 0 0 -28.823 38.4z"/><path d="m288 256h-64a8 8 0 0 0 -8 8v112a8 8 0 0 0 8 8h64a8 8 0 0 0 8-8v-112a8 8 0 0 0 -8-8zm-8 112h-48v-96h48z"/><path d="m208 104h128a8 8 0 0 0 0-16h-128a8 8 0 0 0 0 16z"/><path d="m208 128h128a8 8 0 0 0 0-16h-128a8 8 0 0 0 0 16z"/><path d="m208 152h48a8 8 0 0 0 0-16h-48a8 8 0 0 0 0 16z"/><path d="m280 136a8 8 0 0 0 0 16h8a8 8 0 0 0 0-16z"/><path d="m192 256h-128a8 8 0 0 0 0 16h128a8 8 0 0 0 0-16z"/><path d="m192 280h-128a8 8 0 0 0 0 16h128a8 8 0 0 0 0-16z"/><path d="m112 304h-48a8 8 0 0 0 0 16h48a8 8 0 0 0 0-16z"/><path d="m144 304h-8a8 8 0 0 0 0 16h8a8 8 0 0 0 0-16z"/><path d="m64 240h272a8 8 0 0 0 8-8v-32a8 8 0 0 0 -8-8h-272a8 8 0 0 0 -8 8v32a8 8 0 0 0 8 8zm8-32h256v16h-256z"/><path d="m418.148 394.321a71.951 71.951 0 0 0 -50.148-129.866v-248.455a8 8 0 0 0 -8-8h-320a8 8 0 0 0 -8 8v400a8 8 0 0 0 8 8h252.167a71.58 71.58 0 0 0 -12.167 40v32a8 8 0 0 0 8 8h176a8 8 0 0 0 8-8v-32a72.127 72.127 0 0 0 -53.852-69.679zm13.852-58.321a56 56 0 1 1 -56-56 56.064 56.064 0 0 1 56 56zm-384-312h304v244.128a71.948 71.948 0 0 0 -18.148 126.193 71.822 71.822 0 0 0 -27.037 13.679h-258.815zm408 464h-160v-24a56.064 56.064 0 0 1 56-56h48a56.064 56.064 0 0 1 56 56z"/></g></svg>